<?xml version="1.0" encoding="utf-8"?>
<!-- Generator: Adobe Illustrator 16.0.0, SVG Export Plug-In . SVG Version: 6.00 Build 0)  -->
<!DOCTYPE svg PUBLIC "-//W3C//DTD SVG 1.1//EN" "http://www.w3.org/Graphics/SVG/1.1/DTD/svg11.dtd">
<svg version="1.1" id="Layer_1" xmlns="http://www.w3.org/2000/svg" xmlns:xlink="http://www.w3.org/1999/xlink" x="0px" y="0px"
	 width="93.6px" height="87.2px" viewBox="0 0 93.6 87.2" style="enable-background:new 0 0 93.6 87.2;" xml:space="preserve">
<style type="text/css">
<![CDATA[
	.st0{fill:#FFFFFF;}
	.st1{fill:none;stroke:#FFFFFF;stroke-width:7.3704;stroke-linecap:round;stroke-linejoin:round;stroke-miterlimit:10;}
]]>
</style>
<polygon class="st1" points="47.1,80.2 15.3,62 15.3,25.3 47.2,6.8 79,25.1 79,61.8 "/>
<g>
	<path class="st0" d="M33,44.4c0-8.3,6-14.1,14.3-14.1c5.5,0,8.9,2.4,10.7,4.9l-4.6,4.4c-1.3-1.9-3.2-2.9-5.7-2.9
		c-4.3,0-7.3,3.1-7.3,7.8c0,4.7,3,7.9,7.3,7.9c2.5,0,4.4-1.1,5.7-3l4.6,4.4c-1.8,2.5-5.1,4.9-10.7,4.9C39,58.6,33,52.7,33,44.4z"/>
</g>
</svg>
