<?xml version="1.0" encoding="utf-8"?>
<!-- Generator: Adobe Illustrator 16.0.0, SVG Export Plug-In . SVG Version: 6.00 Build 0)  -->
<!DOCTYPE svg PUBLIC "-//W3C//DTD SVG 1.1//EN" "http://www.w3.org/Graphics/SVG/1.1/DTD/svg11.dtd">
<svg version="1.1" id="Layer_1" xmlns="http://www.w3.org/2000/svg" xmlns:xlink="http://www.w3.org/1999/xlink" x="0px" y="0px"
	 width="98.7px" height="101.6px" viewBox="0 0 98.7 101.6" style="enable-background:new 0 0 98.7 101.6;" xml:space="preserve">
<style type="text/css">
<![CDATA[
	.st0{fill:#FFFFFF;}
	.st1{fill:none;stroke:#FFFFFF;stroke-width:3;stroke-miterlimit:10;}
]]>
</style>
<circle class="st1" cx="49" cy="50.7" r="44"/>
<g id="ball">
	<g>
		<path class="st0" d="M48.7,32c-10,0-18.2,8.1-18.2,18.2s8.1,18.2,18.2,18.2s18.2-8.1,18.2-18.2S58.7,32,48.7,32z M60.7,40.4
			c2.2,2.6,3.4,6,3.5,9.6c-0.5-0.1-5.7-1.1-10.8-0.5c-0.1-0.3-0.2-0.5-0.3-0.8c-0.3-0.7-0.7-1.5-1-2.2
			C57.8,44.1,60.4,40.8,60.7,40.4z M48.7,34.7c4,0,7.5,1.5,10.3,3.9c-0.3,0.4-2.6,3.5-8.1,5.6c-2.6-4.6-5.4-8.5-5.8-9.1
			C46.2,34.8,47.5,34.7,48.7,34.7z M42.1,36.1c0.4,0.5,3.2,4.4,5.7,8.9C40.6,47,34.2,47,33.5,47C34.5,42.2,37.8,38.2,42.1,36.1z
			 M33.2,50.1c0-0.1,0-0.3,0-0.5c0.7,0,8.2,0.1,15.9-2.2c0.5,0.9,0.9,1.7,1.3,2.6c-0.2,0.1-0.4,0.1-0.6,0.2
			c-8,2.6-12.2,9.6-12.6,10.2C34.7,57.7,33.2,54.1,33.2,50.1z M48.7,65.6c-3.6,0-6.9-1.2-9.5-3.3c0.3-0.5,3.4-6.7,12.2-9.7
			c0.1,0,0.1,0,0.1-0.1c2.2,5.7,3.1,10.4,3.3,11.8C52.9,65.2,50.8,65.6,48.7,65.6z M57.3,63c-0.1-0.9-1-5.4-3-11
			c4.8-0.8,9.2,0.5,9.6,0.7C63.3,56.9,60.8,60.6,57.3,63z"/>
	</g>
</g>
</svg>
