<?xml version="1.0" encoding="utf-8"?>
<!-- Generator: Adobe Illustrator 16.0.0, SVG Export Plug-In . SVG Version: 6.00 Build 0)  -->
<!DOCTYPE svg PUBLIC "-//W3C//DTD SVG 1.1//EN" "http://www.w3.org/Graphics/SVG/1.1/DTD/svg11.dtd">
<svg version="1.1" id="Layer_1" xmlns="http://www.w3.org/2000/svg" xmlns:xlink="http://www.w3.org/1999/xlink" x="0px" y="0px"
	 width="98.7px" height="101.6px" viewBox="0 0 98.7 101.6" style="enable-background:new 0 0 98.7 101.6;" xml:space="preserve">
<style type="text/css">
<![CDATA[
	.st0{clip-path:url(#SVGID_2_);fill-rule:evenodd;clip-rule:evenodd;fill:#FFFFFF;}
	.st1{fill:none;stroke:#FFFFFF;stroke-width:3;stroke-miterlimit:10;}
]]>
</style>
<circle class="st1" cx="49" cy="50.7" r="44"/>
<g>
	<defs>
		<rect id="SVGID_1_" x="34.5" y="36.4" width="28.9" height="28.9"/>
	</defs>
	<clipPath id="SVGID_2_">
		<use xlink:href="#SVGID_1_"  style="overflow:visible;"/>
	</clipPath>
	<path class="st0" d="M60.1,48.6h-2.5c0.2,0.7,0.3,1.5,0.3,2.2c0,4.9-4,8.9-8.9,8.9c-4.9,0-8.9-4-8.9-8.9c0-0.8,0.1-1.5,0.3-2.2
		h-2.5v12.2c0,0.6,0.5,1.1,1.1,1.1h20c0.6,0,1.1-0.5,1.1-1.1V48.6z M60.1,40.8c0-0.6-0.5-1.1-1.1-1.1h-3.3c-0.6,0-1.1,0.5-1.1,1.1
		v3.3c0,0.6,0.5,1.1,1.1,1.1H59c0.6,0,1.1-0.5,1.1-1.1V40.8z M49,45.3c-3.1,0-5.6,2.5-5.6,5.6s2.5,5.6,5.6,5.6s5.6-2.5,5.6-5.6
		S52,45.3,49,45.3 M60.1,65.3H37.9c-1.8,0-3.3-1.5-3.3-3.3V39.7c0-1.8,1.5-3.3,3.3-3.3h22.2c1.8,0,3.3,1.5,3.3,3.3v22.2
		C63.4,63.8,61.9,65.3,60.1,65.3"/>
</g>
</svg>
