<?xml version="1.0" encoding="utf-8"?>
<!-- Generator: Adobe Illustrator 16.0.0, SVG Export Plug-In . SVG Version: 6.00 Build 0)  -->
<!DOCTYPE svg PUBLIC "-//W3C//DTD SVG 1.1//EN" "http://www.w3.org/Graphics/SVG/1.1/DTD/svg11.dtd">
<svg version="1.1" id="Layer_1" xmlns="http://www.w3.org/2000/svg" xmlns:xlink="http://www.w3.org/1999/xlink" x="0px" y="0px"
	 width="98.7px" height="101.6px" viewBox="0 0 98.7 101.6" style="enable-background:new 0 0 98.7 101.6;" xml:space="preserve">
<style type="text/css">
<![CDATA[
	.st0{fill:#FFFFFF;}
	.st1{fill:none;stroke:#FFFFFF;stroke-width:3;stroke-miterlimit:10;}
]]>
</style>
<circle class="st1" cx="49" cy="50.7" r="44"/>
<g>
	<path class="st0" d="M41.2,64.7V45.9H35v18.8H41.2L41.2,64.7z M38.1,43.3c2.2,0,3.6-1.4,3.6-3.3c-0.1-1.9-1.3-3.3-3.5-3.3
		s-3.6,1.4-3.6,3.3C34.6,41.9,36,43.3,38.1,43.3L38.1,43.3L38.1,43.3z"/>
	<path class="st0" d="M44.7,64.7H51V54.2c0-0.6,0.1-1.1,0.2-1.6c0.4-1.1,1.5-2.3,3.2-2.3c2.2,0,3.2,1.7,3.2,4.2v10h6.3V53.9
		c0-5.8-3.1-8.5-7.2-8.5c-3.3,0-4.8,1.9-5.7,3.2H51v-2.8h-6.3C44.8,47.7,44.7,64.7,44.7,64.7L44.7,64.7z"/>
</g>
</svg>
