<?xml version="1.0" encoding="utf-8"?>
<!-- Generator: Adobe Illustrator 16.0.0, SVG Export Plug-In . SVG Version: 6.00 Build 0)  -->
<!DOCTYPE svg PUBLIC "-//W3C//DTD SVG 1.1//EN" "http://www.w3.org/Graphics/SVG/1.1/DTD/svg11.dtd">
<svg version="1.1" id="Layer_1" xmlns="http://www.w3.org/2000/svg" xmlns:xlink="http://www.w3.org/1999/xlink" x="0px" y="0px"
	 width="98.7px" height="101.6px" viewBox="0 0 98.7 101.6" style="enable-background:new 0 0 98.7 101.6;" xml:space="preserve">
<style type="text/css">
<![CDATA[
	.st0{fill:#FFFFFF;}
	.st1{fill:none;stroke:#FFFFFF;stroke-width:3;stroke-miterlimit:10;}
]]>
</style>
<circle class="st1" cx="49" cy="50.7" r="44"/>
<path class="st0" d="M62.9,52.9c0,0.1,0,0.1,0,0.2l0-0.3C62.8,52.8,62.8,52.8,62.9,52.9c0.2-0.8,0.2-1.7,0.2-2.5
	c0-1.9-0.4-3.7-1.1-5.4c-0.7-1.7-1.7-3.2-3-4.4c-1.3-1.3-2.8-2.3-4.4-3c-1.7-0.7-3.6-1.1-5.4-1.1c-0.9,0-1.8,0.1-2.7,0.2
	c0,0,0,0,0,0c0,0,0.1,0,0.1,0.1l-0.3,0c0,0,0.1,0,0.1,0c-1.2-0.6-2.5-1-3.9-1c-2.2,0-4.3,0.9-5.9,2.4c-1.6,1.6-2.4,3.6-2.4,5.9
	c0,1.4,0.4,2.8,1,4c0-0.1,0-0.1,0-0.2l0.1,0.3c0,0,0-0.1-0.1-0.1c-0.1,0.8-0.2,1.6-0.2,2.4c0,1.9,0.4,3.7,1.1,5.4
	c0.7,1.7,1.7,3.2,3,4.4c1.3,1.3,2.8,2.3,4.4,3c1.7,0.7,3.6,1.1,5.4,1.1c0.8,0,1.6-0.1,2.5-0.2c0,0-0.1-0.1-0.1-0.1l0.3,0.1
	c-0.1,0-0.1,0-0.2,0c1.2,0.7,2.6,1.1,4.1,1.1c2.2,0,4.3-0.9,5.9-2.4c1.6-1.6,2.4-3.6,2.4-5.9C63.9,55.5,63.6,54.1,62.9,52.9z
	 M49.2,58.9c-5,0-7.2-2.4-7.2-4.3c0-0.9,0.7-1.6,1.7-1.6c2.1,0,1.6,3.1,5.5,3.1c2,0,3.2-1.1,3.2-2.2c0-0.7-0.3-1.4-1.7-1.8L46.2,51
	c-3.6-0.9-4.2-2.8-4.2-4.6c0-3.8,3.5-5.2,6.9-5.2c3.1,0,6.7,1.7,6.7,3.9c0,1-0.8,1.5-1.8,1.5c-1.8,0-1.5-2.5-5.1-2.5
	c-1.8,0-2.8,0.8-2.8,2c0,1.2,1.4,1.5,2.7,1.8l3.3,0.7c3.6,0.8,4.5,2.9,4.5,4.9C56.2,56.6,53.9,58.9,49.2,58.9z"/>
</svg>
