<?xml version="1.0" encoding="utf-8"?>
<!-- Generator: Adobe Illustrator 16.0.0, SVG Export Plug-In . SVG Version: 6.00 Build 0)  -->
<!DOCTYPE svg PUBLIC "-//W3C//DTD SVG 1.1//EN" "http://www.w3.org/Graphics/SVG/1.1/DTD/svg11.dtd">
<svg version="1.1" id="Layer_1" xmlns="http://www.w3.org/2000/svg" xmlns:xlink="http://www.w3.org/1999/xlink" x="0px" y="0px"
	 width="98.7px" height="101.6px" viewBox="0 0 98.7 101.6" style="enable-background:new 0 0 98.7 101.6;" xml:space="preserve">
<style type="text/css">
<![CDATA[
	.st0{fill:#FFFFFF;}
	.st1{fill:none;stroke:#FFFFFF;stroke-width:3;stroke-miterlimit:10;}
]]>
</style>
<circle class="st1" cx="49" cy="50.7" r="44"/>
<path class="st0" d="M65.1,40.9c-1.2,0.6-2.5,0.9-3.8,1c1.4-0.8,2.4-2.1,2.9-3.7C63,39,61.5,39.6,60,39.8c-1.2-1.3-2.9-2.1-4.8-2.1
	c-3.7,0-6.6,3-6.6,6.6c0,0.5,0.1,1,0.1,1.5C43.2,45.6,38.3,43,35.1,39c-0.6,1-0.9,2.1-0.9,3.3c0,2.3,1.2,4.3,3,5.5
	c-1.1,0-2.1-0.3-3-0.8v0.1c0,3.2,2.3,5.9,5.3,6.5c-0.6,0.1-1.1,0.2-1.7,0.2c-0.4,0-0.8-0.1-1.2-0.1c0.8,2.6,3.2,4.6,6.1,4.6
	C40.4,60,37.6,61,34.5,61c-0.6,0-1,0-1.6-0.1c2.9,1.9,6.4,3,10.1,3c12.1,0,18.8-10.1,18.8-18.8c0-0.3,0-0.6,0-0.8
	C63.1,43.4,64.2,42.2,65.1,40.9z"/>
</svg>
